<svg xmlns="http://www.w3.org/2000/svg" width="640" height="320" viewBox="0 0 640 320" font-family="sans-serif" font-size="11">
<text x="56" y="16" font-size="13" font-weight="bold">chat-metered-economics</text>
<text x="56" y="26" font-size="9" opacity="0.7">agent-chat · usd/turn × intelligence</text
<line x1="56" y1="30" x2="624" y2="30" stroke="#666" stroke-opacity="0.25"/>
<line x1="56" y1="92" x2="624" y2="92" stroke="#666" stroke-opacity="0.25"/>
<line x1="56" y1="155" x2="624" y2="155" stroke="#666" stroke-opacity="0.25"/>
<line x1="56" y1="218" x2="624" y2="218" stroke="#666" stroke-opacity="0.25"/>
<line x1="56" y1="280" x2="624" y2="280" stroke="#666" stroke-opacity="0.25"/>
<polyline points="56,245 56,205 58,61 165,48 169,43 624,39" fill="none" stroke="#8f7" stroke-width="1.5" stroke-dasharray="4 3"/>
<circle cx="56" cy="245" r="4" fill="#6c6" fill-opacity="1.0"/>
<text x="63" y="248" font-size="8.5" opacity="1.0">gpt-oss-20b</text>
<text x="54" y="239" font-size="8" opacity="1.0" text-anchor="end">0</text>
<circle cx="56" cy="205" r="4" fill="#6c6" fill-opacity="1.0"/>
<text x="63" y="208" font-size="8.5" opacity="1.0">gpt-oss-120b</text>
<text x="54" y="199" font-size="8" opacity="1.0" text-anchor="end">0</text>
<circle cx="58" cy="61" r="4" fill="#6c6" fill-opacity="1.0"/>
<text x="65" y="64" font-size="8.5" opacity="1.0">muse-spark-1.2-contrib</text>
<text x="56" y="55" font-size="8" opacity="1.0" text-anchor="end">0</text>
<circle cx="165" cy="48" r="4" fill="#6c6" fill-opacity="1.0"/>
<text x="172" y="51" font-size="8.5" opacity="1.0">glm-5.3</text>
<text x="163" y="42" font-size="8" opacity="1.0" text-anchor="end">0</text>
<circle cx="169" cy="43" r="4" fill="#6c6" fill-opacity="1.0"/>
<text x="176" y="46" font-size="8.5" opacity="1.0">gpt-5.6-sol</text>
<text x="167" y="37" font-size="8" opacity="1.0" text-anchor="end">0</text>
<circle cx="624" cy="39" r="4" fill="#6c6" fill-opacity="1.0"/>
<text x="631" y="42" font-size="8.5" opacity="1.0">claude-fable-5</text>
<text x="622" y="33" font-size="8" opacity="1.0" text-anchor="end">0</text>
<circle cx="56" cy="271" r="3" fill="#bbb" fill-opacity="0.45"/>
<text x="63" y="274" font-size="8.5" opacity="0.45">qwen3-30b-a3b-2507</text>
<text x="54" y="265" font-size="8" opacity="0.45" text-anchor="end">0</text>
<circle cx="57" cy="249" r="3" fill="#bbb" fill-opacity="0.45"/>
<text x="64" y="252" font-size="8.5" opacity="0.45">qwen3-coder-30b</text>
<text x="55" y="243" font-size="8" opacity="0.45" text-anchor="end">0</text>
<circle cx="61" cy="83" r="3" fill="#bbb" fill-opacity="0.45"/>
<text x="68" y="86" font-size="8.5" opacity="0.45">deepseek-v4-flash-0731</text>
<text x="59" y="77" font-size="8" opacity="0.45" text-anchor="end">0</text>
<circle cx="61" cy="61" r="3" fill="#bbb" fill-opacity="0.45"/>
<text x="68" y="64" font-size="8.5" opacity="0.45">glm-5.3-flash</text>
<text x="59" y="55" font-size="8" opacity="0.45" text-anchor="end">0</text>
<circle cx="65" cy="162" r="3" fill="#bbb" fill-opacity="0.45"/>
<text x="72" y="165" font-size="8.5" opacity="0.45">longcat-2.0</text>
<text x="63" y="156" font-size="8" opacity="0.45" text-anchor="end">0</text>
<circle cx="67" cy="83" r="3" fill="#bbb" fill-opacity="0.45"/>
<text x="74" y="86" font-size="8.5" opacity="0.45">gpt-5.6-luna</text>
<text x="65" y="77" font-size="8" opacity="0.45" text-anchor="end">0</text>
<circle cx="131" cy="61" r="3" fill="#bbb" fill-opacity="0.45"/>
<text x="138" y="64" font-size="8.5" opacity="0.45">muse-spark-1.2</text>
<text x="129" y="55" font-size="8" opacity="0.45" text-anchor="end">0</text>
<circle cx="171" cy="61" r="3" fill="#bbb" fill-opacity="0.45"/>
<text x="178" y="64" font-size="8.5" opacity="0.45">gpt-5.6-terra</text>
<text x="169" y="55" font-size="8" opacity="0.45" text-anchor="end">0</text>
<circle cx="179" cy="83" r="3" fill="#bbb" fill-opacity="0.45"/>
<text x="186" y="86" font-size="8.5" opacity="0.45">qwen3.8-2.4t-a95b</text>
<text x="177" y="77" font-size="8" opacity="0.45" text-anchor="end">0</text>
<circle cx="179" cy="83" r="3" fill="#bbb" fill-opacity="0.45"/>
<text x="186" y="86" font-size="8.5" opacity="0.45">qwen3.8-max</text>
<text x="177" y="77" font-size="8" opacity="0.45" text-anchor="end">0</text>
<text x="56" y="312" font-size="9" opacity="0.7">x: linear USD/turn · y: intelligence (aa/swe/gpqa) · ★ green = pareto</text>
</svg>