<svg xmlns="http://www.w3.org/2000/svg" width="760" height="300" viewBox="0 0 760 300" role="img" aria-label="Metered · cost↔smarts" font-family="system-ui, sans-serif">
<text x="74" y="14" font-size="12.5" font-weight="600">Metered · cost↔smarts</text>
<text x="74" y="26" font-size="9.5" fill="#777">cost: metered USD per turn (log)  ↔  intelligence: AA index (0-100)</text>
<line x1="74" y1="266" x2="590" y2="266" stroke="#888" stroke-opacity="0.14"/>
<text x="68" y="269" font-size="8.5" fill="#666" text-anchor="end">0</text>
<line x1="74" y1="194" x2="590" y2="194" stroke="#888" stroke-opacity="0.14"/>
<text x="68" y="196" font-size="8.5" fill="#666" text-anchor="end">20</text>
<line x1="74" y1="121" x2="590" y2="121" stroke="#888" stroke-opacity="0.14"/>
<text x="68" y="124" font-size="8.5" fill="#666" text-anchor="end">40</text>
<line x1="74" y1="48" x2="590" y2="48" stroke="#888" stroke-opacity="0.14"/>
<text x="68" y="52" font-size="8.5" fill="#666" text-anchor="end">60</text>
<line x1="127" y1="266" x2="127" y2="270" stroke="#888" stroke-opacity="0.5"/>
<text x="127" y="280" font-size="8.5" fill="#666" text-anchor="middle">0.1¢</text>
<line x1="310" y1="266" x2="310" y2="270" stroke="#888" stroke-opacity="0.5"/>
<text x="310" y="280" font-size="8.5" fill="#666" text-anchor="middle">$0.01</text>
<line x1="492" y1="266" x2="492" y2="270" stroke="#888" stroke-opacity="0.5"/>
<text x="492" y="280" font-size="8.5" fill="#666" text-anchor="middle">$0.1</text>
<line x1="675" y1="266" x2="675" y2="270" stroke="#888" stroke-opacity="0.5"/>
<text x="675" y="280" font-size="8.5" fill="#666" text-anchor="middle">$1</text>
<path d="M 74.0,211.6 L 91.4,179.0 L 178.1,59.4 L 459.8,48.5 L 462.2,44.9 L 590.0,41.2" fill="none" stroke="#3a8f3a" stroke-width="1.4" stroke-dasharray="5 3"/>
<circle cx="74.0" cy="211.6" r="5" fill="#2e7d32" fill-opacity="1.0"/>
<circle cx="594" cy="43.0" r="3" fill="#2e7d32" fill-opacity="1.0"/>
<text x="602" y="46.0" font-size="9.5" fill="#2e7d32" font-weight="600">OR-metered/gpt-oss-20b</text>
<text x="752" y="46.0" font-size="9.5" text-anchor="end" fill="#2e7d32">$0.052¢</text>
<text x="67" y="205" font-size="8.5" text-anchor="end" fill="#2e7d32">$0.052¢</text>
<circle cx="91.4" cy="179.0" r="5" fill="#2e7d32" fill-opacity="1.0"/>
<circle cx="594" cy="56.5" r="3" fill="#2e7d32" fill-opacity="1.0"/>
<text x="602" y="59.5" font-size="9.5" fill="#2e7d32" font-weight="600">OR-metered/gpt-oss-120b</text>
<text x="752" y="59.5" font-size="9.5" text-anchor="end" fill="#2e7d32">$0.064¢</text>
<text x="84" y="172" font-size="8.5" text-anchor="end" fill="#2e7d32">$0.064¢</text>
<circle cx="110.4" cy="233.4" r="3.5" fill="#c9a227" fill-opacity="0.75"/>
<circle cx="594" cy="70.0" r="3" fill="#c9a227" fill-opacity="0.75"/>
<text x="602" y="73.0" font-size="9.5" fill="#555" font-weight="400">OR-metered/qwen3-30b-a3b-2507</text>
<text x="752" y="73.0" font-size="9.5" text-anchor="end" fill="#555">$0.082¢</text>

<circle cx="140.3" cy="215.2" r="3.5" fill="#c9a227" fill-opacity="0.75"/>
<circle cx="594" cy="83.5" r="3" fill="#c9a227" fill-opacity="0.75"/>
<text x="602" y="86.5" font-size="9.5" fill="#555" font-weight="400">OR-metered/qwen3-coder-30b</text>
<text x="752" y="86.5" font-size="9.5" text-anchor="end" fill="#555">$0.0012</text>

<circle cx="178.1" cy="59.4" r="5" fill="#2e7d32" fill-opacity="1.0"/>
<circle cx="594" cy="97.0" r="3" fill="#2e7d32" fill-opacity="1.0"/>
<text x="602" y="100.0" font-size="9.5" fill="#2e7d32" font-weight="600">OR-metered/muse-spark-1.2-contributor</text>
<text x="752" y="100.0" font-size="9.5" text-anchor="end" fill="#2e7d32">$0.0019</text>
<text x="171" y="52" font-size="8.5" text-anchor="end" fill="#2e7d32">$0.0019</text>
<circle cx="231.0" cy="77.5" r="3.5" fill="#c9a227" fill-opacity="0.75"/>
<circle cx="594" cy="110.5" r="3" fill="#c9a227" fill-opacity="0.75"/>
<text x="602" y="113.5" font-size="9.5" fill="#555" font-weight="400">OR-metered/deepseek-v4-flash-0731</text>
<text x="752" y="113.5" font-size="9.5" text-anchor="end" fill="#555">$0.0037</text>

<circle cx="231.5" cy="59.4" r="3.5" fill="#c9a227" fill-opacity="0.75"/>
<circle cx="594" cy="124.0" r="3" fill="#c9a227" fill-opacity="0.75"/>
<text x="602" y="127.0" font-size="9.5" fill="#555" font-weight="400">OR-metered/glm-5.3-flash</text>
<text x="752" y="127.0" font-size="9.5" text-anchor="end" fill="#555">$0.0037</text>

<circle cx="270.1" cy="142.8" r="3.5" fill="#c9a227" fill-opacity="0.75"/>
<circle cx="594" cy="137.5" r="3" fill="#c9a227" fill-opacity="0.75"/>
<text x="602" y="140.5" font-size="9.5" fill="#555" font-weight="400">OR-metered/longcat-2.0</text>
<text x="752" y="140.5" font-size="9.5" text-anchor="end" fill="#555">$0.0061</text>

<circle cx="280.7" cy="77.5" r="3.5" fill="#c9a227" fill-opacity="0.75"/>
<circle cx="594" cy="151.0" r="3" fill="#c9a227" fill-opacity="0.75"/>
<text x="602" y="154.0" font-size="9.5" fill="#555" font-weight="400">OR-metered/gpt-5.6-luna</text>
<text x="752" y="154.0" font-size="9.5" text-anchor="end" fill="#555">$0.0070</text>

<circle cx="430.2" cy="59.4" r="3.5" fill="#c9a227" fill-opacity="0.75"/>
<circle cx="594" cy="164.5" r="3" fill="#c9a227" fill-opacity="0.75"/>
<text x="602" y="167.5" font-size="9.5" fill="#555" font-weight="400">OR-metered/muse-spark-1.2</text>
<text x="752" y="167.5" font-size="9.5" text-anchor="end" fill="#555">$0.0457</text>

<circle cx="459.8" cy="48.5" r="5" fill="#2e7d32" fill-opacity="1.0"/>
<circle cx="594" cy="178.0" r="3" fill="#2e7d32" fill-opacity="1.0"/>
<text x="602" y="181.0" font-size="9.5" fill="#2e7d32" font-weight="600">OR-metered/glm-5.3</text>
<text x="752" y="181.0" font-size="9.5" text-anchor="end" fill="#2e7d32">$0.0664</text>
<text x="453" y="42" font-size="8.5" text-anchor="end" fill="#2e7d32">$0.0664</text>
<circle cx="462.2" cy="44.9" r="5" fill="#2e7d32" fill-opacity="1.0"/>
<circle cx="594" cy="191.5" r="3" fill="#2e7d32" fill-opacity="1.0"/>
<text x="602" y="194.5" font-size="9.5" fill="#2e7d32" font-weight="600">OR-metered/gpt-5.6-sol</text>
<text x="752" y="194.5" font-size="9.5" text-anchor="end" fill="#2e7d32">$0.0684</text>
<text x="455" y="38" font-size="8.5" text-anchor="end" fill="#2e7d32">$0.0684</text>
<circle cx="463.6" cy="59.4" r="3.5" fill="#c9a227" fill-opacity="0.75"/>
<circle cx="594" cy="205.0" r="3" fill="#c9a227" fill-opacity="0.75"/>
<text x="602" y="208.0" font-size="9.5" fill="#555" font-weight="400">OR-metered/gpt-5.6-terra</text>
<text x="752" y="208.0" font-size="9.5" text-anchor="end" fill="#555">$0.0696</text>

<circle cx="468.8" cy="77.5" r="3.5" fill="#c9a227" fill-opacity="0.75"/>
<circle cx="594" cy="218.5" r="3" fill="#c9a227" fill-opacity="0.75"/>
<text x="602" y="221.5" font-size="9.5" fill="#555" font-weight="400">OR-metered/qwen3.8-2.4t-a95b</text>
<text x="752" y="221.5" font-size="9.5" text-anchor="end" fill="#555">$0.0744</text>

<circle cx="468.8" cy="77.5" r="3.5" fill="#c9a227" fill-opacity="0.75"/>
<circle cx="594" cy="232.0" r="3" fill="#c9a227" fill-opacity="0.75"/>
<text x="602" y="235.0" font-size="9.5" fill="#555" font-weight="400">OR-metered/qwen3.8-max</text>
<text x="752" y="235.0" font-size="9.5" text-anchor="end" fill="#555">$0.0744</text>

<circle cx="590.0" cy="41.2" r="5" fill="#2e7d32" fill-opacity="1.0"/>
<circle cx="594" cy="245.5" r="3" fill="#2e7d32" fill-opacity="1.0"/>
<text x="602" y="248.5" font-size="9.5" fill="#2e7d32" font-weight="600">OR-metered/claude-fable-5</text>
<text x="752" y="248.5" font-size="9.5" text-anchor="end" fill="#2e7d32">$0.3421</text>
<text x="583" y="34" font-size="8.5" text-anchor="end" fill="#2e7d32">$0.3421</text>
<text x="74" y="294" font-size="8.5" fill="#777">● frontier · ● amber = within 10% of frontier · ● gray = dominated · † = assumed cap</text>
</svg>