<svg xmlns="http://www.w3.org/2000/svg" width="760" height="300" viewBox="0 0 760 300" role="img" aria-label="Subscriptions · speed↔smarts" font-family="system-ui, sans-serif">
<text x="74" y="14" font-size="12.5" font-weight="600">Subscriptions · speed↔smarts</text>
<text x="74" y="26" font-size="9.5" fill="#777">speed: output tok/s  ↔  intelligence: AA index (0-100)</text>
<line x1="74" y1="266" x2="590" y2="266" stroke="#888" stroke-opacity="0.14"/>
<text x="68" y="269" font-size="8.5" fill="#666" text-anchor="end">0</text>
<line x1="74" y1="192" x2="590" y2="192" stroke="#888" stroke-opacity="0.14"/>
<text x="68" y="195" font-size="8.5" fill="#666" text-anchor="end">20</text>
<line x1="74" y1="119" x2="590" y2="119" stroke="#888" stroke-opacity="0.14"/>
<text x="68" y="122" font-size="8.5" fill="#666" text-anchor="end">40</text>
<line x1="74" y1="45" x2="590" y2="45" stroke="#888" stroke-opacity="0.14"/>
<text x="68" y="48" font-size="8.5" fill="#666" text-anchor="end">60</text>
<line x1="102" y1="266" x2="102" y2="270" stroke="#888" stroke-opacity="0.5"/>
<text x="102" y="280" font-size="8.5" fill="#666" text-anchor="middle">80</text>
<line x1="290" y1="266" x2="290" y2="270" stroke="#888" stroke-opacity="0.5"/>
<text x="290" y="280" font-size="8.5" fill="#666" text-anchor="middle">100</text>
<line x1="477" y1="266" x2="477" y2="270" stroke="#888" stroke-opacity="0.5"/>
<text x="477" y="280" font-size="8.5" fill="#666" text-anchor="middle">120</text>
<path d="M 111.5,41.4 L 590.0,74.5" fill="none" stroke="#3a8f3a" stroke-width="1.4" stroke-dasharray="5 3"/>
<circle cx="74.0" cy="45.0" r="3.5" fill="#c9a227" fill-opacity="0.75"/>
<circle cx="594" cy="43.0" r="3" fill="#c9a227" fill-opacity="0.75"/>
<text x="602" y="46.0" font-size="9.5" fill="#555" font-weight="400">Cline†/glm-5.3</text>
<text x="752" y="46.0" font-size="9.5" text-anchor="end" fill="#555">77 tok/s</text>

<circle cx="74.0" cy="45.0" r="3.5" fill="#c9a227" fill-opacity="0.75"/>
<circle cx="594" cy="56.5" r="3" fill="#c9a227" fill-opacity="0.75"/>
<text x="602" y="59.5" font-size="9.5" fill="#555" font-weight="400">Go/glm-5.3</text>
<text x="752" y="59.5" font-size="9.5" text-anchor="end" fill="#555">77 tok/s</text>

<circle cx="111.5" cy="41.4" r="5" fill="#2e7d32" fill-opacity="1.0"/>
<circle cx="594" cy="70.0" r="3" fill="#2e7d32" fill-opacity="1.0"/>
<text x="602" y="73.0" font-size="9.5" fill="#2e7d32" font-weight="600">GPT+†/gpt-5.6-sol</text>
<text x="752" y="73.0" font-size="9.5" text-anchor="end" fill="#2e7d32">81 tok/s</text>
<text x="105" y="34" font-size="8.5" text-anchor="end" fill="#2e7d32">81 tok/s</text>
<circle cx="468.0" cy="74.5" r="3.5" fill="#c9a227" fill-opacity="0.75"/>
<circle cx="594" cy="83.5" r="3" fill="#c9a227" fill-opacity="0.75"/>
<text x="602" y="86.5" font-size="9.5" fill="#555" font-weight="400">Cline†/deepseek-v4-flash-0731</text>
<text x="752" y="86.5" font-size="9.5" text-anchor="end" fill="#555">119 tok/s</text>

<circle cx="468.0" cy="74.5" r="3.5" fill="#c9a227" fill-opacity="0.75"/>
<circle cx="594" cy="97.0" r="3" fill="#c9a227" fill-opacity="0.75"/>
<text x="602" y="100.0" font-size="9.5" fill="#555" font-weight="400">Go/deepseek-v4-flash-0731</text>
<text x="752" y="100.0" font-size="9.5" text-anchor="end" fill="#555">119 tok/s</text>

<circle cx="590.0" cy="74.5" r="5" fill="#2e7d32" fill-opacity="1.0"/>
<circle cx="594" cy="110.5" r="3" fill="#2e7d32" fill-opacity="1.0"/>
<text x="602" y="113.5" font-size="9.5" fill="#2e7d32" font-weight="600">GPT+†/gpt-5.6-luna</text>
<text x="752" y="113.5" font-size="9.5" text-anchor="end" fill="#2e7d32">132 tok/s</text>
<text x="583" y="68" font-size="8.5" text-anchor="end" fill="#2e7d32">132 tok/s</text>
<text x="74" y="294" font-size="8.5" fill="#777">● frontier · ● amber = within 10% of frontier · ● gray = dominated · † = assumed cap</text>
</svg>