<svg xmlns="http://www.w3.org/2000/svg" width="640" height="320" viewBox="0 0 640 320" font-family="sans-serif" font-size="11">
<text x="56" y="16" font-size="13" font-weight="bold">math-smarts-chat-metered</text>
<text x="56" y="26" font-size="9" opacity="0.7">agent-chat · usd/turn × GPQA-Diamond</text
<line x1="56" y1="30" x2="624" y2="30" stroke="#666" stroke-opacity="0.25"/>
<line x1="56" y1="92" x2="624" y2="92" stroke="#666" stroke-opacity="0.25"/>
<line x1="56" y1="155" x2="624" y2="155" stroke="#666" stroke-opacity="0.25"/>
<line x1="56" y1="218" x2="624" y2="218" stroke="#666" stroke-opacity="0.25"/>
<line x1="56" y1="280" x2="624" y2="280" stroke="#666" stroke-opacity="0.25"/>
<polyline points="56,252 215,104 478,58" fill="none" stroke="#8f7" stroke-width="1.5" stroke-dasharray="4 3"/>
<circle cx="56" cy="252" r="4" fill="#6c6" fill-opacity="1.0"/>
<text x="63" y="255" font-size="8.5" opacity="1.0">gpt-oss-120b</text>
<text x="54" y="246" font-size="8" opacity="1.0" text-anchor="end">$0.000641</text>
<circle cx="215" cy="104" r="4" fill="#6c6" fill-opacity="1.0"/>
<text x="222" y="107" font-size="8.5" opacity="1.0">deepseek-v4-flash-0731</text>
<text x="213" y="98" font-size="8" opacity="1.0" text-anchor="end">$0.003721</text>
<circle cx="478" cy="58" r="4" fill="#6c6" fill-opacity="1.0"/>
<text x="485" y="61" font-size="8.5" opacity="1.0">gpt-5.6-sol</text>
<text x="476" y="52" font-size="8" opacity="1.0" text-anchor="end">$0.06843</text>
<circle cx="272" cy="99" r="3" fill="#bbb" fill-opacity="0.45"/>
<text x="279" y="102" font-size="8.5" opacity="0.45">gpt-5.6-luna</text>
<text x="270" y="93" font-size="8" opacity="0.45" text-anchor="end">$0.006961</text>
<circle cx="480" cy="80" r="3" fill="#bbb" fill-opacity="0.45"/>
<text x="487" y="83" font-size="8.5" opacity="0.45">gpt-5.6-terra</text>
<text x="478" y="74" font-size="8" opacity="0.45" text-anchor="end">$0.06961</text>
<circle cx="624" cy="79" r="3" fill="#bbb" fill-opacity="0.45"/>
<text x="631" y="82" font-size="8.5" opacity="0.45">claude-fable-5</text>
<text x="622" y="73" font-size="8" opacity="0.45" text-anchor="end">$0.3421</text>
<text x="56" y="312" font-size="9" opacity="0.7">x: log USD/turn · y: intelligence (aa/swe/gpqa) · ★ green = pareto</text>
</svg>