<svg xmlns="http://www.w3.org/2000/svg" width="760" height="300" viewBox="0 0 760 300" role="img" aria-label="Metered · coding math↔cost" font-family="system-ui, sans-serif">
<text x="74" y="14" font-size="12.5" font-weight="600">Metered · coding math↔cost</text>
<text x="74" y="26" font-size="9.5" fill="#777">cost: metered USD per turn (log)  ↔  math: GPQA Diamond %</text>
<line x1="74" y1="266" x2="590" y2="266" stroke="#888" stroke-opacity="0.14"/>
<text x="68" y="269" font-size="8.5" fill="#666" text-anchor="end">0</text>
<line x1="74" y1="206" x2="590" y2="206" stroke="#888" stroke-opacity="0.14"/>
<text x="68" y="209" font-size="8.5" fill="#666" text-anchor="end">25</text>
<line x1="74" y1="145" x2="590" y2="145" stroke="#888" stroke-opacity="0.14"/>
<text x="68" y="148" font-size="8.5" fill="#666" text-anchor="end">50</text>
<line x1="74" y1="85" x2="590" y2="85" stroke="#888" stroke-opacity="0.14"/>
<text x="68" y="88" font-size="8.5" fill="#666" text-anchor="end">75</text>
<line x1="211" y1="266" x2="211" y2="270" stroke="#888" stroke-opacity="0.5"/>
<text x="211" y="280" font-size="8.5" fill="#666" text-anchor="middle">0.01</text>
<line x1="369" y1="266" x2="369" y2="270" stroke="#888" stroke-opacity="0.5"/>
<text x="369" y="280" font-size="8.5" fill="#666" text-anchor="middle">0.02</text>
<line x1="527" y1="266" x2="527" y2="270" stroke="#888" stroke-opacity="0.5"/>
<text x="527" y="280" font-size="8.5" fill="#666" text-anchor="middle">0.03</text>
<path d="M 74.0,46.1 L 590.0,38.8" fill="none" stroke="#3a8f3a" stroke-width="1.4" stroke-dasharray="5 3"/>
<circle cx="74.0" cy="46.1" r="5" fill="#2e7d32" fill-opacity="1.0"/>
<circle cx="594" cy="43.0" r="3" fill="#2e7d32" fill-opacity="1.0"/>
<text x="602" y="46.0" font-size="9.5" fill="#2e7d32" font-weight="600">GPT+†/gpt-5.6-luna</text>
<text x="752" y="46.0" font-size="9.5" text-anchor="end" fill="#2e7d32">$0.0014</text>
<text x="67" y="39" font-size="8.5" text-anchor="end" fill="#2e7d32">$0.0014</text>
<circle cx="77.6" cy="46.8" r="3.5" fill="#c9a227" fill-opacity="0.75"/>
<circle cx="594" cy="56.5" r="3" fill="#c9a227" fill-opacity="0.75"/>
<text x="602" y="59.5" font-size="9.5" fill="#555" font-weight="400">Cline†/deepseek-v4-flash-0731</text>
<text x="752" y="59.5" font-size="9.5" text-anchor="end" fill="#555">$0.0016</text>

<circle cx="77.6" cy="46.8" r="3.5" fill="#c9a227" fill-opacity="0.75"/>
<circle cx="594" cy="70.0" r="3" fill="#c9a227" fill-opacity="0.75"/>
<text x="602" y="73.0" font-size="9.5" fill="#555" font-weight="400">Go/deepseek-v4-flash-0731</text>
<text x="752" y="73.0" font-size="9.5" text-anchor="end" fill="#555">$0.0016</text>

<circle cx="590.0" cy="38.8" r="5" fill="#2e7d32" fill-opacity="1.0"/>
<circle cx="594" cy="83.5" r="3" fill="#2e7d32" fill-opacity="1.0"/>
<text x="602" y="86.5" font-size="9.5" fill="#2e7d32" font-weight="600">GPT+†/gpt-5.6-sol</text>
<text x="752" y="86.5" font-size="9.5" text-anchor="end" fill="#2e7d32">$0.0340</text>
<text x="583" y="32" font-size="8.5" text-anchor="end" fill="#2e7d32">$0.0340</text>
<text x="74" y="294" font-size="8.5" fill="#777">● frontier · ● amber = within 10% of frontier · ● gray = dominated · † = assumed cap</text>
</svg>